<?xml version="1.0" standalone="no"?>
<!DOCTYPE svg PUBLIC "-//W3C//DTD SVG 20010904//EN"
 "http://www.w3.org/TR/2001/REC-SVG-20010904/DTD/svg10.dtd">
<svg version="1.0" xmlns="http://www.w3.org/2000/svg"
 width="2000.000000pt" height="2000.000000pt" viewBox="0 0 2000.000000 2000.000000"
 preserveAspectRatio="xMidYMid meet">
<metadata>
Created by potrace 1.14, written by Peter Selinger 2001-2017
</metadata>
<g transform="translate(0.000000,2000.000000) scale(0.100000,-0.100000)"
fill="#000000" stroke="none">
<path d="M9655 18254 c-516 -31 -854 -72 -1268 -154 -1897 -379 -3601 -1415
-4823 -2935 -875 -1088 -1465 -2402 -1698 -3782 -82 -483 -110 -835 -110
-1383 0 -548 28 -900 110 -1383 436 -2582 2084 -4813 4425 -5992 976 -492
1953 -765 3079 -862 289 -24 991 -24 1280 0 602 52 1121 146 1660 302 2452
709 4446 2527 5387 4909 300 760 476 1523 550 2386 24 289 24 991 0 1280 -125
1457 -572 2750 -1360 3935 -934 1404 -2279 2491 -3851 3112 -757 299 -1527
477 -2376 548 -173 15 -859 28 -1005 19z m955 -1039 c1055 -93 2017 -385 2915
-885 894 -497 1687 -1193 2302 -2020 733 -985 1204 -2152 1363 -3374 44 -339
54 -515 54 -936 0 -421 -10 -597 -54 -936 -185 -1420 -781 -2740 -1729 -3829
-142 -163 -446 -470 -616 -623 -1096 -982 -2447 -1603 -3899 -1792 -339 -44
-515 -54 -936 -54 -421 0 -597 10 -936 54 -1339 174 -2601 719 -3649 1577
-390 319 -824 763 -1130 1158 -730 940 -1222 2052 -1419 3209 -76 444 -100
735 -100 1236 0 421 10 597 54 936 185 1419 781 2740 1729 3829 142 163 446
470 616 623 1061 951 2369 1567 3762 1772 239 35 394 51 753 74 130 9 757 -4
920 -19z"/>
<path d="M12575 14489 c-231 -20 -483 -96 -677 -204 -176 -99 -249 -155 -413
-319 -135 -136 -242 -286 -324 -451 -178 -363 -225 -797 -135 -1246 l25 -127
-701 -702 -701 -702 -97 94 c-53 51 -153 147 -222 213 -69 66 -201 194 -295
285 -93 91 -287 278 -430 415 -143 138 -341 329 -440 425 -209 204 -449 437
-620 601 -66 63 -173 167 -237 230 l-117 114 -9 135 c-15 222 -22 231 -412
532 -55 43 -189 148 -440 347 -144 114 -244 187 -264 191 -59 12 -95 -9 -225
-135 -68 -66 -137 -140 -153 -164 -39 -63 -38 -114 5 -174 31 -45 555 -711
684 -871 116 -143 175 -175 338 -183 130 -6 168 -15 196 -51 11 -15 75 -83
142 -152 326 -337 444 -458 597 -615 91 -94 277 -287 415 -430 137 -143 329
-341 425 -440 363 -374 489 -505 616 -640 l130 -140 -677 -677 c-373 -372
-680 -674 -682 -672 -3 3 -17 7 -33 10 -30 6 -34 7 -74 17 -14 4 -37 9 -52 11
-14 2 -62 10 -105 17 -120 20 -445 17 -583 -4 -63 -10 -126 -21 -140 -26 -14
-5 -52 -16 -85 -26 -365 -100 -710 -341 -940 -655 -44 -60 -95 -137 -95 -144
0 -2 -15 -30 -33 -63 -149 -263 -227 -643 -199 -960 24 -257 82 -456 150 -513
32 -27 42 -30 77 -25 21 3 55 18 74 32 18 14 201 193 405 397 204 204 389 383
411 398 81 54 185 61 281 17 63 -29 520 -480 555 -549 18 -35 23 -61 23 -120
-1 -129 -3 -132 -447 -576 -215 -216 -399 -407 -409 -425 -23 -43 -23 -76 2
-116 26 -43 55 -61 155 -94 76 -26 123 -36 265 -57 25 -4 140 -7 255 -6 221 1
314 13 490 66 531 160 986 600 1149 1113 111 348 127 731 46 1071 l-20 87 457
461 c518 522 457 478 593 424 113 -44 198 -106 335 -243 136 -135 194 -244
214 -395 7 -47 16 -119 21 -160 21 -162 -37 -96 1034 -1166 l961 -962 100 -55
c159 -88 293 -128 430 -129 162 -1 290 47 417 156 40 35 206 198 368 362 316
320 350 363 393 499 29 92 30 267 2 365 -32 112 -81 217 -149 318 -57 86 -173
205 -993 1023 -510 509 -941 934 -958 945 -51 32 -98 51 -150 59 -28 5 -55 9
-62 11 -6 1 -46 5 -90 8 -172 14 -316 88 -473 246 -69 69 -142 160 -178 223
-22 38 -72 177 -72 200 0 7 218 230 484 496 l484 484 84 -18 c45 -10 92 -19
103 -21 147 -23 175 -25 360 -25 180 0 200 1 330 22 197 31 448 121 613 220
417 250 721 672 820 1139 59 274 52 568 -18 828 -50 186 -124 255 -218 204
-19 -10 -210 -194 -426 -410 -357 -356 -399 -394 -460 -423 -57 -27 -74 -30
-124 -26 -77 8 -83 9 -135 36 -63 33 -509 482 -531 536 -43 102 -39 186 11
274 14 25 196 215 410 429 212 212 394 399 404 416 41 67 13 148 -63 183 -82
38 -221 77 -316 89 -20 2 -48 6 -62 9 -43 9 -291 12 -375 4z"/>
</g>
</svg>
